<svg width="48" height="48" viewBox="0 0 48 48" fill="none" xmlns="http://www.w3.org/2000/svg">
<mask id="mask0_50_5" style="mask-type:alpha" maskUnits="userSpaceOnUse" x="0" y="0" width="48" height="48">
<rect width="48" height="48" fill="#D9D9D9"/>
</mask>
<g mask="url(#mask0_50_5)">
<path d="M9.65001 24.05L17.4 31.8C17.7667 32.1667 17.95 32.6334 17.95 33.2C17.95 33.7667 17.7667 34.2334 17.4 34.6C17.0333 34.9667 16.5667 35.15 16 35.15C15.4333 35.15 14.9667 34.9667 14.6 34.6L5.40001 25.4C5.20001 25.2 5.05834 24.9834 4.97501 24.75C4.89167 24.5167 4.85001 24.2667 4.85001 24C4.85001 23.7334 4.89167 23.4834 4.97501 23.25C5.05834 23.0167 5.20001 22.8 5.40001 22.6L14.6 13.4C15 13 15.475 12.8 16.025 12.8C16.575 12.8 17.05 13 17.45 13.4C17.85 13.8 18.05 14.275 18.05 14.825C18.05 15.375 17.85 15.85 17.45 16.25L9.65001 24.05ZM38.35 23.95L30.6 16.2C30.2333 15.8334 30.05 15.3667 30.05 14.8C30.05 14.2334 30.2333 13.7667 30.6 13.4C30.9667 13.0334 31.4333 12.85 32 12.85C32.5667 12.85 33.0333 13.0334 33.4 13.4L42.6 22.6C42.8 22.8 42.9417 23.0167 43.025 23.25C43.1083 23.4834 43.15 23.7334 43.15 24C43.15 24.2667 43.1083 24.5167 43.025 24.75C42.9417 24.9834 42.8 25.2 42.6 25.4L33.4 34.6C33 35 32.5333 35.1917 32 35.175C31.4667 35.1584 31 34.95 30.6 34.55C30.2 34.15 30 33.675 30 33.125C30 32.5751 30.2 32.1 30.6 31.7L38.35 23.95Z" fill="#35012C"/>
</g>
</svg>
