<svg width="48" height="48" viewBox="0 0 48 48" fill="none" xmlns="http://www.w3.org/2000/svg">
<mask id="mask0_29_217" style="mask-type:alpha" maskUnits="userSpaceOnUse" x="0" y="0" width="48" height="48">
<rect width="48" height="48" fill="#D9D9D9"/>
</mask>
<g mask="url(#mask0_29_217)">
<path d="M17.9075 22.708L22.3425 18.2425L18.8885 14.7575L17.6845 15.9615C17.4075 16.2385 17.0645 16.3853 16.6555 16.402C16.2468 16.4186 15.8873 16.2718 15.577 15.9615C15.2667 15.6511 15.1115 15.2948 15.1115 14.8925C15.1115 14.4898 15.2667 14.1333 15.577 13.823L16.75 12.65L13.673 9.57295L9.2075 14.0385L17.9075 22.708ZM33.9425 38.773L38.4075 34.3075L35.3305 31.2305L34.127 32.404C33.8293 32.7013 33.4812 32.8531 33.0825 32.8595C32.6838 32.8658 32.3293 32.714 32.019 32.404C31.709 32.0936 31.554 31.7423 31.554 31.35C31.554 30.9576 31.709 30.6063 32.019 30.296L33.1925 29.0925L29.727 25.6575L25.292 30.0925L33.9425 38.773ZM8.808 41C8.29233 41 7.86217 40.8275 7.5175 40.4825C7.1725 40.1378 7 39.7076 7 39.192V34.35C7 34.109 7.04367 33.8795 7.131 33.6615C7.218 33.4435 7.35517 33.241 7.5425 33.054L15.7695 24.827L6.696 15.7345C6.232 15.2705 6 14.7051 6 14.0385C6 13.3718 6.232 12.8065 6.696 12.3425L11.977 7.06145C12.441 6.59745 13.0063 6.37062 13.673 6.38095C14.3397 6.39095 14.905 6.62812 15.369 7.09245L24.5115 16.1845L32.754 7.91145C33.0643 7.60112 33.4053 7.37162 33.777 7.22295C34.1487 7.07429 34.5372 6.99995 34.9425 6.99995C35.3475 6.99995 35.7358 7.07429 36.1075 7.22295C36.4795 7.37162 36.8205 7.60112 37.1305 7.91145L40.0885 10.958C40.3988 11.268 40.625 11.609 40.767 11.981C40.9093 12.3526 40.9805 12.741 40.9805 13.146C40.9805 13.5513 40.9093 13.9315 40.767 14.2865C40.625 14.6415 40.3988 14.9741 40.0885 15.2845L31.8845 23.5385L40.9385 32.631C41.4025 33.095 41.6345 33.6603 41.6345 34.327C41.6345 34.9936 41.4025 35.559 40.9385 36.023L35.6575 41.304C35.1935 41.768 34.6282 42 33.9615 42C33.2948 42 32.7295 41.768 32.2655 41.304L23.173 32.2305L14.946 40.4575C14.759 40.6448 14.5565 40.782 14.3385 40.869C14.1205 40.9563 13.891 41 13.65 41H8.808ZM10 38H13.127L32.746 18.4115L29.5885 15.254L10 34.873V38ZM31.1925 16.8385L29.5885 15.254L32.746 18.4115L31.1925 16.8385Z" fill="#35012C"/>
</g>
</svg>
