<svg width="150" height="31" viewBox="0 0 150 31" fill="none" xmlns="http://www.w3.org/2000/svg">
<path fill-rule="evenodd" clip-rule="evenodd" d="M6.38099 3.17882C5.32451 3.91746 4.36917 4.79078 3.53984 5.77386C6.92884 5.45926 11.2344 5.97297 16.2332 8.47209C21.5712 11.1407 25.8696 11.231 28.8611 10.654C28.5896 9.83225 28.2479 9.04249 27.8431 8.29171C24.4187 8.65285 20.0286 8.17482 14.9122 5.61702C11.6633 3.99274 8.79945 3.32365 6.38099 3.17882ZM25.8427 5.44473C23.1384 2.42356 19.2084 0.522247 14.8343 0.522247C13.5497 0.522247 12.3034 0.686246 11.1152 0.994423C12.7244 1.43346 14.4339 2.07578 16.2332 2.97533C19.9791 4.84804 23.2131 5.45102 25.8427 5.44473ZM29.5007 13.5384C25.8867 14.2519 20.8961 14.1054 14.9122 11.1138C9.318 8.31696 4.86545 8.35218 1.8625 9.01945C1.7075 9.05386 1.55614 9.09004 1.40844 9.1277C1.01528 9.98266 0.701449 10.8817 0.47627 11.8153C0.716774 11.7511 0.965297 11.69 1.22171 11.633C4.86482 10.8235 10.0122 10.8587 16.2332 13.9689C21.8275 16.7657 26.28 16.7304 29.283 16.0632C29.3859 16.0404 29.4873 16.0167 29.587 15.9924C29.5979 15.7596 29.6034 15.5253 29.6034 15.2897C29.6034 14.6972 29.5685 14.1128 29.5007 13.5384ZM29.1048 19.1088C25.5259 19.7345 20.6806 19.4943 14.9122 16.6105C9.318 13.8137 4.86545 13.8489 1.8625 14.5162C1.19593 14.6643 0.596297 14.8446 0.067334 15.0351C0.0658918 15.1198 0.0651703 15.2047 0.0651703 15.2897C0.0651703 23.4456 6.67752 30.0572 14.8343 30.0572C21.6702 30.0572 27.4215 25.4135 29.1048 19.1088Z" fill="#35012C"/>
<path d="M49.0446 10.822L45.5154 20.4447H43.1717L39.6425 10.822H41.7104L44.3573 18.4733L46.9905 10.822H49.0446ZM55.8127 10.822V17.5772C55.8127 18.5147 55.5416 19.2453 54.9994 19.7692C54.4571 20.2839 53.731 20.5412 52.8211 20.5412C51.9021 20.5412 51.1576 20.2747 50.5878 19.7416C50.0272 19.2086 49.7468 18.4641 49.7468 17.5083H51.6769C51.6861 17.9219 51.7826 18.2436 51.9664 18.4733C52.1594 18.7031 52.4351 18.818 52.7936 18.818C53.1428 18.818 53.4094 18.7077 53.5932 18.4871C53.777 18.2665 53.8689 17.9632 53.8689 17.5772V10.822H55.8127ZM59.9942 10.822V20.4447H58.0642V10.822H59.9942ZM64.7174 15.6196C64.7174 14.673 64.9288 13.8274 65.3515 13.083C65.7835 12.3293 66.3671 11.7457 67.1024 11.3321C67.8468 10.9093 68.6786 10.698 69.5977 10.698C70.673 10.698 71.615 10.9737 72.4238 11.5251C73.2326 12.0766 73.7978 12.8394 74.1195 13.8136H71.8999C71.6794 13.3541 71.3669 13.0094 70.9625 12.7797C70.5673 12.5499 70.1077 12.435 69.5839 12.435C69.0232 12.435 68.5223 12.5683 68.0812 12.8348C67.6492 13.0921 67.3092 13.4598 67.061 13.9377C66.8221 14.4156 66.7026 14.9762 66.7026 15.6196C66.7026 16.2538 66.8221 16.8144 67.061 17.3015C67.3092 17.7794 67.6492 18.1516 68.0812 18.4182C68.5223 18.6755 69.0232 18.8042 69.5839 18.8042C70.1077 18.8042 70.5673 18.6893 70.9625 18.4595C71.3669 18.2206 71.6794 17.8713 71.8999 17.4118H74.1195C73.7978 18.3952 73.2326 19.1626 72.4238 19.7141C71.6242 20.2563 70.6822 20.5275 69.5977 20.5275C68.6786 20.5275 67.8468 20.3207 67.1024 19.9071C66.3671 19.4843 65.7835 18.9007 65.3515 18.1562C64.9288 17.4118 64.7174 16.5662 64.7174 15.6196ZM79.1594 20.5688C78.4241 20.5688 77.7624 20.408 77.1742 20.0863C76.586 19.7554 76.1219 19.2913 75.7818 18.6939C75.4509 18.0965 75.2855 17.4072 75.2855 16.626C75.2855 15.8448 75.4555 15.1555 75.7956 14.5581C76.1448 13.9607 76.6182 13.5011 77.2156 13.1795C77.813 12.8486 78.4793 12.6832 79.2145 12.6832C79.9498 12.6832 80.6161 12.8486 81.2135 13.1795C81.8109 13.5011 82.2797 13.9607 82.6197 14.5581C82.969 15.1555 83.1436 15.8448 83.1436 16.626C83.1436 17.4072 82.9644 18.0965 82.6059 18.6939C82.2567 19.2913 81.7788 19.7554 81.1722 20.0863C80.5748 20.408 79.9039 20.5688 79.1594 20.5688ZM79.1594 18.8869C79.5087 18.8869 79.8349 18.8042 80.1382 18.6388C80.4507 18.4641 80.6989 18.2068 80.8827 17.8667C81.0665 17.5267 81.1584 17.1131 81.1584 16.626C81.1584 15.8999 80.9654 15.3439 80.5794 14.9579C80.2026 14.5627 79.7384 14.3651 79.187 14.3651C78.6355 14.3651 78.1714 14.5627 77.7946 14.9579C77.427 15.3439 77.2431 15.8999 77.2431 16.626C77.2431 17.3521 77.4224 17.9127 77.7808 18.3079C78.1484 18.6939 78.608 18.8869 79.1594 18.8869ZM86.4894 13.9928C86.7376 13.5884 87.0592 13.2714 87.4544 13.0416C87.8588 12.8118 88.3184 12.6969 88.8331 12.6969V14.7235H88.323C87.7164 14.7235 87.2568 14.866 86.9444 15.1509C86.6411 15.4358 86.4894 15.9321 86.4894 16.6398V20.4447H84.5594V12.8072H86.4894V13.9928ZM92.0631 13.9101C92.3112 13.5609 92.6513 13.2714 93.0833 13.0416C93.5244 12.8026 94.0253 12.6832 94.586 12.6832C95.2385 12.6832 95.8267 12.844 96.3506 13.1657C96.8836 13.4873 97.3018 13.9469 97.6051 14.5443C97.9176 15.1325 98.0738 15.8172 98.0738 16.5984C98.0738 17.3796 97.9176 18.0735 97.6051 18.6801C97.3018 19.2775 96.8836 19.7416 96.3506 20.0725C95.8267 20.4034 95.2385 20.5688 94.586 20.5688C94.0253 20.5688 93.529 20.4539 93.0971 20.2242C92.6743 19.9944 92.3296 19.7049 92.0631 19.3556V24.0843H90.133V12.8072H92.0631V13.9101ZM96.1024 16.5984C96.1024 16.1389 96.0059 15.7437 95.8129 15.4128C95.6291 15.0727 95.381 14.8154 95.0685 14.6408C94.7652 14.4662 94.4343 14.3788 94.0759 14.3788C93.7266 14.3788 93.3958 14.4708 93.0833 14.6546C92.78 14.8292 92.5318 15.0865 92.3388 15.4266C92.155 15.7666 92.0631 16.1664 92.0631 16.626C92.0631 17.0855 92.155 17.4853 92.3388 17.8254C92.5318 18.1654 92.78 18.4274 93.0833 18.6112C93.3958 18.7858 93.7266 18.8731 94.0759 18.8731C94.4343 18.8731 94.7652 18.7812 95.0685 18.5974C95.381 18.4136 95.6291 18.1516 95.8129 17.8116C96.0059 17.4715 96.1024 17.0671 96.1024 16.5984ZM102.868 20.5688C102.132 20.5688 101.471 20.408 100.883 20.0863C100.294 19.7554 99.8302 19.2913 99.4901 18.6939C99.1593 18.0965 98.9938 17.4072 98.9938 16.626C98.9938 15.8448 99.1639 15.1555 99.5039 14.5581C99.8532 13.9607 100.327 13.5011 100.924 13.1795C101.521 12.8486 102.188 12.6832 102.923 12.6832C103.658 12.6832 104.324 12.8486 104.922 13.1795C105.519 13.5011 105.988 13.9607 106.328 14.5581C106.677 15.1555 106.852 15.8448 106.852 16.626C106.852 17.4072 106.673 18.0965 106.314 18.6939C105.965 19.2913 105.487 19.7554 104.881 20.0863C104.283 20.408 103.612 20.5688 102.868 20.5688ZM102.868 18.8869C103.217 18.8869 103.543 18.8042 103.847 18.6388C104.159 18.4641 104.407 18.2068 104.591 17.8667C104.775 17.5267 104.867 17.1131 104.867 16.626C104.867 15.8999 104.674 15.3439 104.288 14.9579C103.911 14.5627 103.447 14.3651 102.895 14.3651C102.344 14.3651 101.88 14.5627 101.503 14.9579C101.135 15.3439 100.951 15.8999 100.951 16.626C100.951 17.3521 101.131 17.9127 101.489 18.3079C101.857 18.6939 102.316 18.8869 102.868 18.8869ZM110.198 13.9928C110.446 13.5884 110.768 13.2714 111.163 13.0416C111.567 12.8118 112.027 12.6969 112.541 12.6969V14.7235H112.031C111.425 14.7235 110.965 14.866 110.653 15.1509C110.349 15.4358 110.198 15.9321 110.198 16.6398V20.4447H108.268V12.8072H110.198V13.9928ZM113.345 16.5984C113.345 15.8264 113.497 15.1417 113.8 14.5443C114.113 13.9469 114.531 13.4873 115.055 13.1657C115.588 12.844 116.18 12.6832 116.833 12.6832C117.403 12.6832 117.899 12.798 118.322 13.0278C118.754 13.2576 119.098 13.5471 119.356 13.8963V12.8072H121.3V20.4447H119.356V19.3281C119.108 19.6865 118.763 19.9852 118.322 20.2242C117.89 20.4539 117.389 20.5688 116.819 20.5688C116.176 20.5688 115.588 20.4034 115.055 20.0725C114.531 19.7416 114.113 19.2775 113.8 18.6801C113.497 18.0735 113.345 17.3796 113.345 16.5984ZM119.356 16.626C119.356 16.1573 119.264 15.7575 119.08 15.4266C118.896 15.0865 118.648 14.8292 118.336 14.6546C118.023 14.4708 117.688 14.3788 117.329 14.3788C116.971 14.3788 116.64 14.4662 116.337 14.6408C116.033 14.8154 115.785 15.0727 115.592 15.4128C115.408 15.7437 115.317 16.1389 115.317 16.5984C115.317 17.0579 115.408 17.4623 115.592 17.8116C115.785 18.1516 116.033 18.4136 116.337 18.5974C116.649 18.7812 116.98 18.8731 117.329 18.8731C117.688 18.8731 118.023 18.7858 118.336 18.6112C118.648 18.4274 118.896 18.17 119.08 17.8392C119.264 17.4991 119.356 17.0947 119.356 16.626ZM125.432 14.3926V18.0873C125.432 18.3447 125.492 18.5331 125.611 18.6525C125.74 18.7628 125.951 18.818 126.245 18.818H127.141V20.4447H125.928C124.301 20.4447 123.488 19.6543 123.488 18.0735V14.3926H122.578V12.8072H123.488V10.9185H125.432V12.8072H127.141V14.3926H125.432ZM129.508 11.8973C129.168 11.8973 128.883 11.7917 128.654 11.5803C128.433 11.3597 128.323 11.0886 128.323 10.7669C128.323 10.4452 128.433 10.1787 128.654 9.96729C128.883 9.74671 129.168 9.63642 129.508 9.63642C129.848 9.63642 130.129 9.74671 130.349 9.96729C130.579 10.1787 130.694 10.4452 130.694 10.7669C130.694 11.0886 130.579 11.3597 130.349 11.5803C130.129 11.7917 129.848 11.8973 129.508 11.8973ZM130.46 12.8072V20.4447H128.53V12.8072H130.46ZM135.758 20.5688C135.023 20.5688 134.361 20.408 133.773 20.0863C133.184 19.7554 132.72 19.2913 132.38 18.6939C132.049 18.0965 131.884 17.4072 131.884 16.626C131.884 15.8448 132.054 15.1555 132.394 14.5581C132.743 13.9607 133.217 13.5011 133.814 13.1795C134.411 12.8486 135.078 12.6832 135.813 12.6832C136.548 12.6832 137.215 12.8486 137.812 13.1795C138.409 13.5011 138.878 13.9607 139.218 14.5581C139.567 15.1555 139.742 15.8448 139.742 16.626C139.742 17.4072 139.563 18.0965 139.204 18.6939C138.855 19.2913 138.377 19.7554 137.771 20.0863C137.173 20.408 136.502 20.5688 135.758 20.5688ZM135.758 18.8869C136.107 18.8869 136.433 18.8042 136.737 18.6388C137.049 18.4641 137.297 18.2068 137.481 17.8667C137.665 17.5267 137.757 17.1131 137.757 16.626C137.757 15.8999 137.564 15.3439 137.178 14.9579C136.801 14.5627 136.337 14.3651 135.785 14.3651C135.234 14.3651 134.77 14.5627 134.393 14.9579C134.025 15.3439 133.842 15.8999 133.842 16.626C133.842 17.3521 134.021 17.9127 134.379 18.3079C134.747 18.6939 135.206 18.8869 135.758 18.8869ZM145.39 12.6969C146.3 12.6969 147.035 12.9864 147.596 13.5655C148.157 14.1353 148.437 14.9349 148.437 15.9642V20.4447H146.507V16.2262C146.507 15.6196 146.355 15.1555 146.052 14.8338C145.749 14.5029 145.335 14.3375 144.811 14.3375C144.278 14.3375 143.855 14.5029 143.543 14.8338C143.24 15.1555 143.088 15.6196 143.088 16.2262V20.4447H141.158V12.8072H143.088V13.7585C143.345 13.4276 143.671 13.1703 144.067 12.9864C144.471 12.7934 144.912 12.6969 145.39 12.6969Z" fill="#35012C"/>
</svg>
