<svg width="30" height="31" viewBox="0 0 30 31" fill="none" xmlns="http://www.w3.org/2000/svg">
<path fill-rule="evenodd" clip-rule="evenodd" d="M6.38099 3.17882C5.32451 3.91746 4.36917 4.79078 3.53984 5.77386C6.92884 5.45926 11.2344 5.97297 16.2332 8.47209C21.5712 11.1407 25.8696 11.231 28.8611 10.654C28.5896 9.83225 28.2479 9.04249 27.8431 8.29171C24.4187 8.65285 20.0286 8.17482 14.9122 5.61702C11.6633 3.99274 8.79945 3.32365 6.38099 3.17882ZM25.8427 5.44473C23.1384 2.42356 19.2084 0.522247 14.8343 0.522247C13.5497 0.522247 12.3034 0.686246 11.1152 0.994423C12.7244 1.43346 14.4339 2.07578 16.2332 2.97533C19.9791 4.84804 23.2131 5.45102 25.8427 5.44473ZM29.5007 13.5384C25.8867 14.2519 20.8961 14.1054 14.9122 11.1138C9.318 8.31696 4.86545 8.35218 1.8625 9.01945C1.7075 9.05386 1.55614 9.09004 1.40844 9.1277C1.01528 9.98266 0.701449 10.8817 0.47627 11.8153C0.716774 11.7511 0.965297 11.69 1.22171 11.633C4.86482 10.8235 10.0122 10.8587 16.2332 13.9689C21.8275 16.7657 26.28 16.7304 29.283 16.0632C29.3859 16.0404 29.4873 16.0167 29.587 15.9924C29.5979 15.7596 29.6034 15.5253 29.6034 15.2897C29.6034 14.6972 29.5685 14.1128 29.5007 13.5384ZM29.1048 19.1088C25.5259 19.7345 20.6806 19.4943 14.9122 16.6105C9.318 13.8137 4.86545 13.8489 1.8625 14.5162C1.19593 14.6643 0.596297 14.8446 0.067334 15.0351C0.0658918 15.1198 0.0651703 15.2047 0.0651703 15.2897C0.0651703 23.4456 6.67752 30.0572 14.8343 30.0572C21.6702 30.0572 27.4215 25.4135 29.1048 19.1088Z" fill="#35012C"/>
</svg>
