<svg width="48" height="48" viewBox="0 0 48 48" fill="none" xmlns="http://www.w3.org/2000/svg">
<mask id="mask0_29_235" style="mask-type:alpha" maskUnits="userSpaceOnUse" x="0" y="0" width="48" height="48">
<rect width="48" height="48" fill="#D9D9D9"/>
</mask>
<g mask="url(#mask0_29_235)">
<path d="M8 40C6.9 40 5.95833 39.6083 5.175 38.825C4.39167 38.0417 4 37.1 4 36V12C4 10.9 4.39167 9.95833 5.175 9.175C5.95833 8.39167 6.9 8 8 8H40C41.1 8 42.0417 8.39167 42.825 9.175C43.6083 9.95833 44 10.9 44 12V36C44 37.1 43.6083 38.0417 42.825 38.825C42.0417 39.6083 41.1 40 40 40H8ZM8 36H40V16H8V36ZM17.35 26L13.55 22.2C13.15 21.8 12.9583 21.3333 12.975 20.8C12.9917 20.2667 13.2 19.8 13.6 19.4C14 19.0333 14.4667 18.8417 15 18.825C15.5333 18.8083 16 19 16.4 19.4L21.6 24.6C22 25 22.2 25.4667 22.2 26C22.2 26.5333 22 27 21.6 27.4L16.4 32.6C16.0333 32.9667 15.575 33.1583 15.025 33.175C14.475 33.1917 14 33 13.6 32.6C13.2333 32.2333 13.05 31.7667 13.05 31.2C13.05 30.6333 13.2333 30.1667 13.6 29.8L17.35 26ZM26 34C25.4333 34 24.9583 33.8083 24.575 33.425C24.1917 33.0417 24 32.5667 24 32C24 31.4333 24.1917 30.9583 24.575 30.575C24.9583 30.1917 25.4333 30 26 30H34C34.5667 30 35.0417 30.1917 35.425 30.575C35.8083 30.9583 36 31.4333 36 32C36 32.5667 35.8083 33.0417 35.425 33.425C35.0417 33.8083 34.5667 34 34 34H26Z" fill="#35012C"/>
</g>
</svg>
