<svg width="49" height="48" viewBox="0 0 49 48" fill="none" xmlns="http://www.w3.org/2000/svg">
<mask id="mask0_29_275" style="mask-type:alpha" maskUnits="userSpaceOnUse" x="0" y="0" width="49" height="48">
<rect x="0.5" width="48" height="48" fill="#D9D9D9"/>
</mask>
<g mask="url(#mask0_29_275)">
<path d="M20 29C19.5667 29 19.2083 28.8583 18.925 28.575C18.6417 28.2917 18.5 27.9333 18.5 27.5C18.5 27.0667 18.6417 26.7083 18.925 26.425C19.2083 26.1417 19.5667 26 20 26H29C29.4333 26 29.7917 26.1417 30.075 26.425C30.3583 26.7083 30.5 27.0667 30.5 27.5C30.5 27.9333 30.3583 28.2917 30.075 28.575C29.7917 28.8583 29.4333 29 29 29H20ZM18 23C17.5667 23 17.2083 22.8583 16.925 22.575C16.6417 22.2917 16.5 21.9333 16.5 21.5C16.5 21.0667 16.6417 20.7083 16.925 20.425C17.2083 20.1417 17.5667 20 18 20H31C31.4333 20 31.7917 20.1417 32.075 20.425C32.3583 20.7083 32.5 21.0667 32.5 21.5C32.5 21.9333 32.3583 22.2917 32.075 22.575C31.7917 22.8583 31.4333 23 31 23H18ZM14.5 46C13.4 46 12.4583 45.6083 11.675 44.825C10.8917 44.0417 10.5 43.1 10.5 42V6C10.5 4.9 10.8917 3.95833 11.675 3.175C12.4583 2.39167 13.4 2 14.5 2H34.5C35.6 2 36.5417 2.39167 37.325 3.175C38.1083 3.95833 38.5 4.9 38.5 6V42C38.5 43.1 38.1083 44.0417 37.325 44.825C36.5417 45.6083 35.6 46 34.5 46H14.5ZM14.5 40V42H34.5V40H14.5ZM14.5 36H34.5V12H14.5V36ZM14.5 8H34.5V6H14.5V8Z" fill="#35012C"/>
</g>
</svg>
